<?xml version="1.0" encoding="UTF-8"?>
<svg id="Layer_1" data-name="Layer 1" xmlns="http://www.w3.org/2000/svg" viewBox="0 0 264.44 264.44">
  
  <path d="M264.44,107.18c-.11,.13-.28,.24-.32,.38-2.91,10.58-8.75,15.06-19.69,15.06-57.04,0-114.08,0-171.13,0-9.42,0-16.52-5.6-18.42-14.44-2.2-10.2,5.84-20.64,16.25-21.09,.94-.04,1.89-.06,2.83-.06,57.04,0,114.08,0,171.13,0,8.92,0,15.29,4.02,18.07,11.39,.51,1.35,.86,2.75,1.29,4.13v4.64Zm-104.93-12.03c-28.17,0-56.33,0-84.5,0-1.03,0-2.06,0-3.09,.04-5.12,.26-8.48,3.58-8.95,8.83-.43,4.83,2.59,9.01,7.35,10.01,1.33,.28,2.72,.33,4.09,.33,56.76,.02,113.53,.01,170.29,.01,.86,0,1.72,.04,2.57-.05,4.78-.47,7.95-3.58,8.53-8.16,.69-5.45-2.38-11.13-10.24-11.09-28.68,.16-57.36,.06-86.05,.06Z"/>
  <path d="M264.44,214.43c-.25,.8-.52,1.6-.75,2.4-2.19,7.78-9.04,13.05-17.14,13.05-58.07,.01-116.14,.02-174.21,0-9.86,0-17.69-7.87-17.72-17.64-.02-9.95,7.74-17.88,17.73-17.89,58.07-.03,116.14-.03,174.21,0,8.67,0,15.54,5.73,17.39,14.3,.09,.4,.32,.77,.49,1.15v4.64Zm-104.81-11.95c-28.94,0-57.88-.02-86.82,.02-7.06,0-11.18,5.47-9.47,12.3,1.09,4.34,4.57,6.87,9.64,6.87,57.71,.01,115.42,0,173.13,0,.43,0,.86,.01,1.29-.02,4.62-.39,7.92-3.64,8.39-8.28,.53-5.27-1.95-9.4-6.54-10.55-1.47-.37-3.06-.33-4.6-.33-28.34-.02-56.68-.01-85.02,0Z"/>
  <path d="M113.67,68.98c-28.87,0-57.74,.03-86.61-.02-10.68-.02-18.71-8.34-18.28-18.75,.38-9.37,7.77-16.55,17.63-17.12,.69-.04,1.37-.03,2.06-.03,56.79,0,113.59,0,170.38,0,8.97,0,15.46,4.04,18.42,11.43,4.69,11.7-3.73,24.32-16.48,24.46-12.37,.13-24.74,.04-37.12,.04-16.67,0-33.34,0-50.01,0Zm.08-27.36c-29.04,0-58.07-.02-87.11,.01-5.43,0-8.79,3.16-9.38,8.58-.55,5.05,2.38,9.35,7.19,10.36,1.24,.26,2.56,.22,3.84,.22,56.96,0,113.92,0,170.87,0,.86,0,1.72,.03,2.58-.04,4.13-.33,7.23-3.04,8.11-7.08,1.52-6.96-2.56-12.06-9.76-12.06-28.78-.02-57.56,0-86.34,0Z"/>
  <path d="M113.56,176.25c-28.95,0-57.91,.02-86.86-.01-10.2-.01-18.13-8.18-17.93-18.29,.18-9.03,7.22-16.56,16.21-17.34,1.03-.09,2.06-.13,3.09-.13,57.05,0,114.1-.01,171.15,0,9.98,0,16.97,5.35,18.94,14.41,2.35,10.79-5.89,21.26-16.96,21.34-15.64,.1-31.27,.03-46.91,.03-13.57,0-27.15,0-40.72,0Zm-.05-8.16c21.31,0,42.61,0,63.92,0,7.9,0,15.81,.04,23.71-.03,4.45-.04,7.76-2.77,8.69-6.97,1.58-7.06-2.57-12.17-9.92-12.18-57.47,0-114.95,0-172.42,0-.6,0-1.2-.02-1.8,.02-4.32,.31-7.54,3.25-8.27,7.51-1.18,6.85,2.79,11.63,9.76,11.64,28.78,.02,57.56,0,86.34,0Z"/>
 
</svg>