<svg id="Layer_1" data-name="Layer 1" xmlns="http://www.w3.org/2000/svg" viewBox="0 0 525 262.5">
    <path
        d="M380.33,586H206.2c0-3.13.06-6.27,0-9.4,0-2.17-.27-4.32-.41-6.48V537.43c.14-2.82.4-5.64.4-8.46,0-2.65-.26-5.3-.4-8V472c.14-2.82.4-5.64.4-8.46,0-2.65-.26-5.3-.4-7.95V406.49c.14-3.16.38-6.31.4-9.47,0-2.32-.26-4.63-.4-6.95V341c.14-3.58.36-7.16.4-10.74,0-1.89-.26-3.78-.4-5.68a17.74,17.74,0,0,0-2.86-.46q-83.5,0-167,0a17.12,17.12,0,0,1-2.8-.49H556V336.9a15.17,15.17,0,0,1-.49-2.54c-.06-3.38,0-6.75,0-10.1H380.39V566.61Z"
        transform="translate(-31 -323.5)" style="fill:#fff" />
    <path
        d="M380.39,419.21v-49c.15-4.1.35-8.2.43-12.31a34.72,34.72,0,0,0-.43-4.16V324.26h175.1c0,3.35,0,6.72,0,10.1a15.17,15.17,0,0,0,.49,2.54v24a5.13,5.13,0,0,0-.49,1.51q-.06,6.93,0,13.87a5.16,5.16,0,0,0,.49,1.5v15.86a7.17,7.17,0,0,0-.49,1.75q-.06,6.44,0,12.86a7.24,7.24,0,0,0,.49,1.76v16.36a5.22,5.22,0,0,0-.49,1.51q-.06,6.93,0,13.87a5.16,5.16,0,0,0,.49,1.5v15.86a7.17,7.17,0,0,0-.49,1.75q-.06,6.44,0,12.86a7.24,7.24,0,0,0,.49,1.76v16.37a5.16,5.16,0,0,0-.49,1.5q-.06,6.93,0,13.87a5.16,5.16,0,0,0,.49,1.5v15.86a7.3,7.3,0,0,0-.49,1.75q-.06,6.43,0,12.87A7.3,7.3,0,0,0,556,541v16.37a5.16,5.16,0,0,0-.49,1.5q-.06,6.93,0,13.87a5.13,5.13,0,0,0,.49,1.51V586H380.33l.06-19.39c.15-4.1.35-8.2.43-12.3a34.3,34.3,0,0,0-.43-4.16v-49c.15-4.1.35-8.2.43-12.3a34.3,34.3,0,0,0-.43-4.16v-49c.15-4.1.35-8.2.43-12.3A34.3,34.3,0,0,0,380.39,419.21Z"
        transform="translate(-31 -323.5)" style="fill:#018752" />
    <path
        d="M205.77,537.43v32.69q0,7.93-.08,15.88H31.05q0-130.17-.05-260.35c0-1.75.34-2.43,2.1-2a17.12,17.12,0,0,0,2.8.49q83.51,0,167,0a17.74,17.74,0,0,1,2.86.46V537.43Z"
        transform="translate(-31 -323.5)" style="fill:#018752" />
    
   
    <path d="M205.69,586q0-7.93.08-15.88c.14,2.16.37,4.31.41,6.48.08,3.13,0,6.27,0,9.4Z"
        transform="translate(-31 -323.5)" style="fill:#abd7c6" />
    <path d="M205.77,341V324.6c.14,1.9.43,3.79.4,5.68C206.13,333.86,205.91,337.44,205.77,341Z"
        transform="translate(-31 -323.5)" style="fill:#abd7c6" />
    <path d="M380.39,353.73a34.72,34.72,0,0,1,.43,4.16c-.08,4.11-.28,8.21-.43,12.31Z"
        transform="translate(-31 -323.5)" style="fill:#abd7c6" />
    <path
        d="M205.77,406.49V390.07c.14,2.32.42,4.63.4,6.95C206.15,400.18,205.91,403.33,205.77,406.49Z"
        transform="translate(-31 -323.5)" style="fill:#abd7c6" />
    <path d="M380.39,419.21a34.3,34.3,0,0,1,.43,4.16c-.08,4.1-.28,8.2-.43,12.3Z"
        transform="translate(-31 -323.5)" style="fill:#abd7c6" />
    <path d="M205.77,472V455.55c.14,2.65.4,5.3.4,7.95C206.17,466.32,205.91,469.14,205.77,472Z"
        transform="translate(-31 -323.5)" style="fill:#abd7c6" />
    <path d="M380.39,484.68a34.3,34.3,0,0,1,.43,4.16c-.08,4.1-.28,8.2-.43,12.3Z"
        transform="translate(-31 -323.5)" style="fill:#abd7c6" />
    <path d="M205.77,537.43V521c.14,2.65.4,5.3.4,8C206.17,531.79,205.91,534.61,205.77,537.43Z"
        transform="translate(-31 -323.5)" style="fill:#abd7c6" />
    <path d="M380.39,550.15a34.3,34.3,0,0,1,.43,4.16c-.08,4.1-.28,8.2-.43,12.3Z"
        transform="translate(-31 -323.5)" style="fill:#abd7c6" />
</svg>